<?xml version="1.0" standalone="no"?>
<!DOCTYPE svg PUBLIC "-//W3C//DTD SVG 20010904//EN"
 "http://www.w3.org/TR/2001/REC-SVG-20010904/DTD/svg10.dtd">
<svg version="1.0" xmlns="http://www.w3.org/2000/svg"
 width="3633.000000pt" height="3633.000000pt" viewBox="0 0 3633.000000 3633.000000"
 preserveAspectRatio="xMidYMid meet">
<metadata>
Created by potrace 1.14, written by Peter Selinger 2001-2017
</metadata>
<g transform="translate(0.000000,3633.000000) scale(0.100000,-0.100000)"
fill="#000000" stroke="none">
<path d="M17588 36325 c-2 -1 -79 -6 -173 -9 -167 -6 -239 -10 -400 -21 -44
-3 -111 -7 -150 -10 -156 -10 -347 -26 -475 -40 -19 -2 -66 -6 -105 -9 -38 -4
-83 -8 -100 -11 -16 -2 -55 -7 -86 -10 -31 -3 -65 -7 -75 -9 -11 -2 -50 -7
-89 -11 -38 -4 -78 -9 -89 -11 -10 -2 -42 -6 -70 -9 -28 -2 -62 -7 -76 -9 -14
-3 -77 -12 -140 -21 -63 -9 -131 -18 -150 -21 -19 -3 -73 -12 -120 -19 -47 -8
-102 -17 -124 -21 -21 -3 -48 -7 -59 -10 -12 -2 -39 -6 -61 -10 -22 -3 -43 -7
-46 -9 -3 -2 -33 -7 -65 -10 -33 -4 -63 -9 -66 -11 -3 -2 -21 -6 -40 -9 -58
-9 -78 -13 -284 -56 -110 -22 -211 -43 -225 -46 -22 -4 -177 -38 -222 -49 -10
-2 -26 -6 -35 -8 -10 -2 -49 -12 -88 -21 -38 -9 -78 -18 -88 -20 -10 -2 -27
-7 -37 -10 -10 -3 -27 -7 -37 -9 -40 -8 -235 -58 -338 -86 -60 -17 -117 -33
-125 -34 -41 -10 -109 -29 -147 -41 -23 -8 -52 -16 -65 -19 -13 -3 -75 -20
-138 -39 -484 -146 -841 -267 -1225 -413 -93 -36 -174 -66 -180 -68 -5 -2 -23
-8 -40 -15 -16 -7 -93 -37 -170 -68 -511 -203 -1261 -550 -1680 -778 -33 -18
-96 -51 -140 -75 -44 -24 -111 -60 -148 -81 -38 -22 -70 -39 -73 -39 -17 0
-633 -368 -902 -539 -100 -64 -201 -127 -223 -141 -45 -28 -389 -260 -404
-273 -5 -4 -77 -55 -159 -113 -163 -116 -532 -389 -554 -410 -7 -8 -17 -14
-20 -14 -4 0 -18 -10 -32 -23 -14 -12 -88 -72 -165 -132 -77 -60 -151 -119
-165 -131 -14 -12 -92 -78 -175 -146 -82 -67 -157 -130 -165 -138 -9 -8 -40
-35 -69 -60 -29 -25 -63 -53 -75 -63 -27 -23 -155 -137 -176 -157 -9 -8 -36
-33 -60 -54 -165 -145 -443 -410 -695 -662 -241 -242 -336 -341 -596 -625 -13
-14 -51 -56 -84 -94 -33 -37 -67 -75 -75 -84 -9 -9 -43 -47 -75 -86 -33 -38
-68 -79 -78 -90 -23 -25 -75 -86 -162 -190 -37 -44 -77 -91 -89 -105 -11 -14
-39 -48 -61 -75 -22 -28 -48 -59 -57 -70 -79 -94 -427 -545 -503 -652 -16 -23
-90 -125 -163 -227 -257 -358 -564 -828 -777 -1186 -54 -91 -106 -177 -116
-192 -11 -15 -19 -30 -19 -33 0 -3 -11 -22 -23 -43 -22 -34 -174 -305 -260
-462 -65 -119 -217 -413 -286 -555 -94 -191 -231 -477 -231 -482 0 -2 -18 -43
-41 -91 -23 -48 -88 -197 -145 -332 -58 -135 -109 -254 -113 -265 -12 -27 -90
-222 -106 -265 -7 -19 -23 -59 -35 -88 -100 -247 -299 -824 -414 -1197 -86
-282 -243 -845 -260 -937 -2 -13 -15 -68 -29 -123 -14 -55 -40 -163 -57 -240
-17 -77 -35 -158 -40 -180 -6 -22 -12 -51 -14 -65 -3 -14 -21 -102 -40 -195
-19 -94 -37 -186 -41 -205 -3 -19 -10 -57 -15 -85 -5 -27 -12 -63 -15 -80 -3
-16 -7 -43 -10 -60 -9 -48 -24 -137 -30 -175 -3 -19 -7 -46 -10 -60 -3 -14 -7
-40 -10 -57 -3 -18 -7 -45 -9 -60 -3 -16 -8 -48 -11 -73 -3 -25 -8 -56 -10
-70 -13 -78 -21 -133 -30 -210 -4 -25 -8 -56 -10 -70 -2 -14 -7 -50 -10 -80
-3 -30 -8 -66 -10 -80 -2 -14 -6 -52 -10 -84 -3 -33 -8 -73 -10 -90 -6 -42
-13 -109 -20 -181 -3 -33 -8 -80 -11 -104 -3 -25 -7 -70 -10 -100 -2 -31 -6
-78 -9 -106 -2 -27 -7 -86 -10 -130 -3 -44 -8 -105 -10 -135 -2 -30 -7 -102
-10 -160 -3 -58 -8 -130 -10 -160 -14 -194 -20 -466 -20 -975 0 -514 4 -727
20 -995 17 -298 23 -393 30 -455 2 -22 7 -78 10 -125 3 -47 8 -105 11 -130 3
-25 7 -65 10 -90 5 -67 14 -150 20 -195 2 -22 6 -60 9 -85 5 -61 28 -246 40
-330 7 -51 15 -106 20 -150 7 -49 34 -229 41 -270 2 -14 7 -43 10 -65 2 -22
16 -105 30 -185 14 -80 27 -160 29 -177 3 -18 9 -52 14 -75 6 -24 12 -56 15
-73 3 -16 8 -41 11 -55 3 -14 12 -61 20 -105 69 -362 190 -875 310 -1310 107
-390 299 -989 425 -1330 28 -77 67 -183 87 -235 213 -579 609 -1459 906 -2015
29 -55 78 -147 109 -205 31 -58 82 -150 113 -205 31 -55 73 -129 93 -165 19
-36 46 -83 60 -105 14 -22 30 -49 36 -60 6 -11 41 -69 76 -128 82 -138 86
-144 151 -249 137 -221 183 -293 191 -296 4 -2 8 -8 8 -13 0 -12 279 -426 415
-617 61 -84 117 -163 125 -175 88 -128 596 -787 675 -874 5 -6 26 -31 46 -55
141 -171 415 -487 514 -594 5 -6 51 -55 100 -109 50 -55 128 -140 175 -190
134 -142 632 -639 769 -765 68 -63 137 -128 155 -145 109 -103 558 -495 706
-615 30 -25 57 -47 60 -51 3 -3 64 -51 135 -108 72 -56 139 -110 150 -119 40
-35 364 -280 490 -372 72 -52 135 -99 140 -103 29 -23 264 -186 430 -299 105
-70 197 -133 205 -138 36 -25 239 -155 272 -175 10 -5 75 -46 145 -90 70 -44
135 -84 145 -90 9 -5 62 -37 118 -70 116 -69 165 -98 200 -118 14 -8 57 -32
95 -54 39 -22 90 -51 115 -65 25 -14 61 -34 80 -45 50 -28 181 -99 285 -155
120 -65 651 -330 790 -395 208 -97 250 -117 255 -118 3 0 21 -8 40 -17 444
-210 1287 -532 1905 -729 266 -84 734 -220 914 -265 9 -2 97 -24 196 -49 99
-25 194 -48 210 -50 17 -3 41 -9 55 -14 14 -5 39 -12 55 -15 17 -3 122 -25
235 -50 113 -24 221 -47 241 -50 20 -3 42 -8 50 -10 15 -6 26 -8 154 -31 44
-8 91 -17 105 -20 21 -4 99 -18 230 -40 14 -3 36 -7 50 -9 14 -3 43 -8 65 -11
22 -3 96 -14 165 -25 69 -11 143 -23 165 -26 22 -3 51 -7 65 -9 27 -4 243 -33
300 -40 64 -8 204 -24 265 -30 33 -3 74 -8 90 -10 17 -2 62 -7 100 -10 39 -3
86 -8 105 -10 19 -2 67 -7 105 -10 107 -9 175 -14 235 -20 30 -2 96 -7 145
-10 50 -3 120 -8 158 -10 239 -16 448 -19 1057 -20 596 0 794 4 1050 20 30 2
102 6 159 10 118 7 191 12 271 20 30 2 84 7 120 10 115 9 184 15 215 19 17 3
66 8 110 11 44 4 87 8 95 10 8 2 44 7 80 10 36 4 76 8 90 10 14 2 50 7 80 10
30 3 66 7 80 10 14 2 49 7 79 10 30 4 62 8 71 10 9 2 41 6 71 10 30 3 79 10
109 15 30 5 73 12 95 15 22 3 51 7 65 10 202 32 297 48 355 60 39 7 90 16 115
20 25 3 53 8 63 11 10 3 30 7 45 9 15 2 117 22 227 45 110 23 211 43 225 46
197 40 769 182 1025 256 77 22 158 44 180 49 38 10 176 52 388 118 53 17 139
44 190 60 205 65 922 323 1002 361 11 5 66 27 123 49 57 23 120 48 140 57 47
20 56 24 177 75 139 58 411 178 525 232 52 24 122 57 155 72 68 31 569 280
660 329 33 17 105 56 160 85 922 493 1846 1101 2690 1770 538 427 967 807
1469 1301 137 135 263 261 282 280 18 19 64 67 102 107 38 40 114 120 168 179
54 59 110 119 124 134 14 14 57 62 95 105 39 44 89 100 111 125 23 25 72 81
110 125 38 44 71 82 74 85 3 3 28 32 55 65 82 99 90 107 100 119 6 6 37 45 70
86 33 41 65 80 70 86 65 69 463 588 646 842 242 336 656 962 779 1177 10 17
42 71 72 120 56 91 193 326 233 400 245 445 263 479 416 785 121 242 175 356
309 645 127 276 326 757 442 1070 32 88 62 167 65 175 3 8 7 17 8 20 1 3 4 12
8 20 44 108 228 667 312 943 100 335 261 937 300 1126 2 9 17 77 34 151 16 74
32 146 35 160 2 14 14 70 26 125 11 55 23 111 25 125 5 27 12 61 20 100 3 14
12 63 21 110 9 47 18 94 20 105 2 10 6 35 9 55 3 20 7 47 10 60 6 31 35 206
40 240 2 14 10 68 19 120 8 52 18 115 21 140 3 25 8 56 10 70 2 14 6 45 10 70
3 25 8 56 10 70 2 14 7 50 10 80 4 30 8 66 10 80 7 47 27 222 40 353 3 26 7
70 10 97 18 181 25 257 30 330 6 89 15 204 20 270 3 30 7 100 10 155 3 55 8
156 12 225 17 289 8 1671 -12 1880 -2 25 -7 95 -10 155 -4 61 -8 130 -10 155
-2 25 -6 81 -10 125 -6 82 -12 146 -20 225 -3 25 -7 72 -10 105 -3 33 -7 76
-10 95 -2 19 -6 62 -10 95 -3 33 -7 76 -10 95 -3 19 -7 58 -10 85 -7 68 -16
135 -21 165 -2 14 -7 48 -9 75 -3 28 -8 61 -10 75 -2 14 -7 45 -10 70 -3 25
-7 56 -10 70 -2 14 -7 45 -10 70 -20 151 -95 577 -171 963 -2 10 -6 26 -8 35
-3 9 -8 34 -10 55 -3 21 -8 42 -11 46 -3 5 -7 22 -9 38 -8 64 -168 735 -186
783 -5 14 -12 36 -14 50 -29 155 -365 1245 -431 1395 -7 17 -16 41 -20 55 -10
33 -97 271 -142 385 -68 177 -145 370 -158 400 -7 17 -38 89 -68 160 -313 744
-737 1578 -1160 2280 -101 167 -343 552 -365 580 -4 6 -26 39 -49 75 -23 36
-46 70 -50 75 -5 6 -20 28 -33 50 -26 42 -276 400 -363 520 -171 234 -560 741
-586 765 -4 3 -33 39 -66 80 -53 68 -401 478 -414 490 -4 3 -38 41 -76 85 -39
44 -81 92 -95 106 -14 15 -45 48 -69 75 -307 340 -869 901 -1207 1204 -22 19
-82 73 -134 120 -556 501 -1281 1063 -1970 1525 -359 241 -1029 655 -1059 655
-6 0 -11 3 -11 8 0 4 -10 12 -23 18 -12 5 -83 44 -157 86 -74 41 -164 91 -200
110 -36 19 -83 45 -105 58 -145 84 -784 397 -1080 530 -88 39 -178 80 -200 90
-66 30 -376 160 -381 160 -2 0 -23 9 -47 19 -23 11 -71 31 -107 45 -36 13
-128 49 -205 79 -128 50 -466 175 -490 181 -5 2 -17 6 -25 9 -24 11 -402 138
-435 147 -16 4 -88 27 -160 50 -167 53 -666 197 -745 215 -8 2 -96 24 -195 50
-99 25 -207 52 -240 60 -33 7 -141 31 -240 54 -165 38 -571 122 -655 136 -19
3 -46 8 -60 10 -66 13 -164 31 -215 39 -16 3 -86 14 -155 25 -69 11 -143 22
-165 26 -22 3 -51 7 -65 10 -72 11 -357 49 -455 60 -27 4 -61 8 -75 10 -14 3
-52 7 -85 10 -33 3 -76 7 -95 10 -47 6 -219 23 -305 30 -38 4 -86 8 -105 10
-19 2 -71 7 -115 10 -44 3 -105 8 -135 10 -30 3 -95 7 -145 10 -49 2 -137 7
-195 10 -58 4 -148 9 -200 12 -101 5 -1346 13 -1352 8z m15169 -11192 c31 -65
57 -120 58 -123 0 -3 14 -32 29 -65 158 -337 323 -734 506 -1220 128 -338 408
-1232 455 -1453 2 -9 24 -96 48 -192 55 -216 82 -330 93 -390 2 -14 8 -43 14
-65 12 -52 48 -223 54 -255 2 -14 7 -36 10 -50 6 -27 9 -41 32 -170 8 -47 17
-96 20 -110 7 -34 34 -189 40 -222 2 -16 6 -41 9 -56 3 -16 7 -45 9 -65 3 -20
8 -52 11 -69 3 -18 7 -46 10 -63 6 -35 43 -308 51 -375 3 -25 7 -56 9 -70 2
-14 7 -56 11 -95 3 -38 8 -79 10 -89 2 -11 6 -52 9 -92 3 -39 7 -81 10 -92 2
-11 6 -56 10 -99 3 -43 8 -98 10 -123 6 -69 14 -176 20 -270 3 -47 8 -114 10
-150 5 -73 14 -281 20 -470 6 -166 6 -804 1 -955 -6 -158 -17 -396 -21 -465
-7 -120 -16 -257 -20 -300 -3 -25 -7 -79 -10 -120 -3 -41 -8 -91 -10 -110 -2
-19 -7 -69 -10 -110 -4 -41 -9 -93 -11 -115 -3 -22 -7 -58 -9 -80 -6 -67 -17
-159 -20 -177 -2 -9 -6 -44 -10 -77 -3 -33 -7 -68 -9 -78 -2 -10 -7 -43 -11
-73 -3 -30 -8 -66 -10 -80 -3 -14 -7 -43 -9 -65 -3 -22 -7 -49 -10 -60 -3 -19
-17 -113 -21 -145 -4 -34 -28 -176 -60 -350 -36 -196 -38 -204 -54 -290 -6
-30 -13 -66 -16 -79 -11 -60 -59 -277 -87 -396 -16 -71 -32 -138 -34 -148 -2
-10 -6 -27 -9 -37 -3 -10 -8 -27 -10 -37 -28 -127 -191 -723 -223 -818 -6 -16
-32 -97 -57 -180 -108 -345 -263 -780 -405 -1135 -69 -174 -268 -640 -279
-655 -4 -5 -14 -26 -21 -45 -57 -147 -399 -824 -561 -1113 -22 -38 -39 -70
-39 -73 0 -3 -38 -69 -188 -324 -83 -141 -118 -199 -152 -250 -9 -14 -19 -32
-23 -40 -4 -8 -20 -34 -35 -58 -15 -23 -49 -77 -76 -120 -88 -137 -300 -453
-391 -582 -48 -69 -104 -147 -123 -175 -117 -166 -374 -501 -563 -735 -98
-122 -409 -490 -444 -526 -5 -6 -41 -46 -80 -89 -38 -43 -83 -93 -100 -111
-16 -17 -75 -81 -130 -140 -184 -201 -673 -684 -896 -886 -14 -13 -64 -58
-112 -102 -100 -91 -115 -103 -181 -160 -27 -22 -58 -50 -70 -61 -12 -11 -100
-86 -196 -166 -724 -601 -1428 -1095 -2218 -1557 -96 -56 -175 -102 -177 -102
-2 0 -27 -14 -55 -30 -52 -31 -140 -79 -240 -133 -30 -16 -82 -44 -115 -62
-130 -71 -806 -405 -821 -405 -2 0 -39 -16 -81 -36 -782 -363 -1989 -779
-2813 -969 -30 -7 -127 -29 -215 -50 -88 -20 -171 -39 -185 -41 -13 -3 -56
-12 -95 -20 -38 -9 -81 -17 -95 -20 -14 -2 -56 -11 -95 -19 -38 -8 -81 -16
-95 -19 -23 -4 -231 -42 -275 -50 -11 -2 -40 -7 -65 -11 -48 -8 -70 -12 -110
-20 -14 -2 -44 -7 -67 -10 -72 -10 -97 -13 -135 -19 -21 -3 -55 -9 -75 -12
-21 -3 -51 -7 -68 -9 -16 -2 -52 -7 -80 -11 -27 -3 -57 -8 -65 -9 -8 -2 -44
-6 -80 -10 -36 -4 -72 -8 -80 -10 -8 -2 -42 -6 -75 -9 -33 -4 -80 -9 -105 -12
-103 -11 -128 -13 -190 -19 -36 -3 -81 -8 -100 -10 -19 -2 -73 -7 -120 -10
-47 -3 -101 -8 -120 -10 -19 -2 -82 -6 -140 -9 -58 -4 -130 -9 -160 -11 -458
-34 -1383 -34 -1885 0 -44 3 -114 8 -155 10 -41 3 -100 7 -130 9 -30 3 -95 7
-145 11 -49 3 -101 8 -115 10 -14 2 -61 7 -105 10 -44 4 -91 8 -105 10 -14 2
-50 6 -80 10 -30 3 -71 8 -90 10 -19 3 -75 9 -125 15 -118 14 -176 21 -199 26
-10 2 -44 6 -75 9 -31 4 -63 8 -71 10 -8 2 -35 7 -60 10 -25 3 -56 8 -70 10
-14 2 -45 7 -70 10 -25 3 -52 8 -60 10 -8 3 -33 7 -55 10 -22 2 -49 6 -60 9
-11 2 -40 7 -65 11 -25 4 -54 9 -65 12 -11 2 -56 10 -100 18 -44 8 -91 17
-105 20 -149 29 -201 40 -301 61 -63 13 -126 27 -140 29 -56 11 -336 77 -484
115 -88 23 -167 43 -175 45 -8 1 -42 11 -75 20 -33 9 -82 23 -110 30 -85 23
-266 75 -345 100 -482 152 -670 215 -1020 347 -295 111 -668 263 -865 353 -27
13 -86 40 -130 60 -44 20 -116 53 -160 73 -142 65 -626 308 -780 392 -82 45
-179 98 -215 117 -36 20 -128 72 -205 117 -77 44 -148 86 -158 91 -214 119
-850 532 -1149 746 -223 160 -617 455 -638 479 -3 3 -25 21 -50 40 -63 48
-373 301 -385 314 -5 6 -37 33 -70 61 -33 27 -65 54 -71 60 -6 5 -26 23 -45
39 -64 55 -204 181 -254 228 -27 26 -61 56 -75 68 -65 56 -312 293 -479 461
-246 246 -329 333 -586 614 -55 60 -273 311 -332 380 -23 28 -70 84 -105 125
-49 59 -225 278 -303 378 -5 7 -15 18 -21 25 -58 67 -414 554 -546 747 l-85
126 101 57 c55 31 121 69 146 83 25 15 74 43 110 63 110 63 115 66 120 71 3 3
21 13 40 24 44 23 43 23 361 206 145 84 278 161 296 171 17 10 50 29 72 43 22
15 43 26 45 26 3 0 29 14 58 32 47 28 204 118 893 516 242 139 457 264 665
384 85 50 180 104 210 121 30 17 105 60 165 95 61 36 124 72 140 82 17 9 72
41 123 71 52 30 110 63 130 75 20 11 114 65 207 119 94 54 183 106 200 114 16
9 32 18 35 21 3 3 14 10 25 16 76 41 645 370 667 385 15 11 29 19 32 19 3 0
29 14 58 31 29 18 125 73 213 124 516 297 614 354 652 378 24 15 45 27 47 27
3 0 43 22 88 49 46 27 99 58 118 68 19 11 150 87 290 168 140 81 269 155 285
165 36 21 219 126 485 280 107 62 215 124 240 138 25 14 62 36 82 49 21 12 43
23 50 23 7 -1 37 -31 65 -68 29 -38 61 -77 70 -88 10 -10 33 -37 52 -59 105
-124 207 -232 395 -420 287 -286 325 -320 711 -633 105 -85 518 -372 661 -459
601 -367 1201 -635 1839 -823 149 -44 464 -125 522 -135 20 -3 38 -7 42 -9 3
-2 24 -7 46 -10 22 -4 47 -8 55 -11 8 -2 29 -7 45 -10 47 -8 267 -46 295 -50
119 -18 302 -41 405 -50 39 -3 86 -8 105 -10 40 -5 196 -15 320 -21 113 -5
545 -5 645 0 221 12 312 17 335 21 14 2 55 7 92 10 99 8 156 15 370 45 140 20
160 23 218 35 35 7 79 14 120 21 19 3 43 7 52 10 10 3 30 7 45 10 16 2 57 12
92 20 61 15 77 19 126 28 179 35 729 205 955 296 52 21 125 50 162 64 142 55
527 235 663 310 22 12 76 41 120 65 256 138 601 361 865 558 699 520 1302
1152 1782 1868 112 167 198 302 198 310 0 3 15 28 34 57 54 85 159 277 244
446 71 140 105 211 195 412 81 182 289 754 311 860 3 14 17 66 32 115 14 50
27 97 29 105 2 8 8 35 15 60 7 25 14 52 15 60 2 8 12 53 23 100 23 99 59 271
68 325 3 21 8 47 10 59 8 39 32 190 39 239 4 27 8 56 10 65 1 10 6 46 10 82 3
36 8 79 10 95 9 73 21 212 30 355 4 52 8 118 10 145 5 60 5 618 0 695 -11 199
-20 311 -30 410 -3 30 -8 75 -10 99 -5 50 -14 122 -30 231 -2 14 -6 43 -10 65
-3 23 -8 52 -10 65 -3 14 -8 43 -11 65 -20 156 -128 627 -194 845 -17 58 -33
112 -34 120 -8 32 -97 292 -140 409 -30 82 -43 128 -36 136 5 6 28 21 52 33
48 25 63 34 126 75 24 15 45 27 48 27 4 0 402 229 485 279 19 11 41 24 49 28
8 4 65 36 125 72 61 36 112 66 115 66 3 0 16 8 30 17 24 15 407 236 460 265
14 8 39 22 56 32 17 10 118 69 225 131 188 109 223 129 292 169 17 10 75 43
127 73 249 144 369 213 411 237 53 31 567 328 589 341 14 9 406 235 725 418
72 41 144 83 160 93 17 11 37 22 45 26 8 4 51 28 95 54 163 95 922 533 975
562 30 16 62 36 71 43 8 8 18 14 21 14 3 0 104 57 224 126 120 70 233 135 249
144 17 10 86 50 155 90 69 40 141 81 160 92 19 11 109 63 200 116 91 52 237
137 325 187 88 51 176 102 195 114 19 11 41 24 49 27 7 4 52 30 100 57 263
153 496 287 499 287 1 0 28 -53 59 -117z m-14167 -1527 c30 -3 80 -8 110 -11
30 -3 75 -8 100 -11 57 -6 99 -12 175 -24 33 -5 78 -12 100 -15 50 -7 278 -53
325 -65 19 -5 46 -11 60 -14 42 -8 60 -13 205 -55 785 -225 1494 -614 2120
-1163 118 -104 416 -406 524 -533 437 -508 768 -1082 1006 -1740 26 -71 49
-137 50 -145 2 -8 18 -62 35 -120 53 -179 58 -201 94 -365 39 -183 53 -253 61
-310 3 -23 7 -50 9 -60 2 -11 7 -45 10 -75 4 -30 9 -71 12 -90 2 -19 6 -62 9
-95 3 -33 7 -76 10 -95 22 -181 22 -696 0 -920 -21 -211 -27 -257 -55 -430
-44 -274 -112 -549 -206 -825 -72 -215 -68 -203 -79 -230 -4 -11 -21 -54 -37
-95 -274 -702 -770 -1419 -1354 -1959 -113 -105 -135 -124 -234 -206 -185
-153 -597 -445 -628 -445 -6 0 -12 -4 -14 -8 -3 -7 -34 -26 -130 -81 -21 -11
-55 -31 -75 -42 -180 -102 -537 -265 -758 -344 -209 -75 -545 -173 -688 -200
-17 -4 -88 -19 -137 -30 -3 0 -27 -5 -55 -10 -27 -5 -52 -9 -55 -10 -3 0 -30
-5 -60 -9 -30 -4 -64 -10 -75 -12 -11 -2 -42 -6 -70 -9 -27 -4 -61 -8 -75 -10
-14 -2 -57 -7 -95 -10 -39 -3 -81 -7 -94 -10 -38 -7 -324 -18 -481 -18 -132 0
-316 8 -430 18 -177 15 -188 16 -281 31 -14 2 -43 6 -64 9 -83 10 -125 17
-241 40 -66 13 -131 26 -145 28 -150 28 -614 166 -744 222 -16 7 -66 26 -110
43 -44 17 -93 37 -110 45 -16 8 -50 23 -75 33 -54 23 -376 184 -440 220 -38
22 -211 124 -268 159 -112 69 -374 258 -512 369 -362 294 -761 718 -1003 1066
-327 469 -557 917 -726 1412 -51 151 -129 419 -138 473 -2 17 -11 53 -18 80
-20 69 -60 292 -84 465 -20 147 -24 180 -38 350 -10 123 -10 667 0 790 10 122
13 151 33 318 3 26 12 88 20 137 8 50 17 104 20 120 11 70 47 237 70 330 14
55 28 109 30 119 2 10 8 33 13 50 83 269 143 446 180 531 4 11 30 72 56 135
94 225 274 567 404 770 23 36 49 78 59 93 16 27 112 165 149 216 212 290 529
639 783 860 47 41 87 77 90 80 21 25 307 245 422 326 122 85 341 222 488 303
128 71 507 252 528 252 4 0 19 6 33 14 24 12 146 59 301 115 203 73 644 185
853 216 22 3 67 10 100 15 72 11 121 17 200 25 33 4 71 8 85 10 14 3 70 7 125
10 55 3 101 8 103 10 5 5 651 -3 722 -9z"/>
</g>
</svg>
